# Blender v3.3.1 OBJ File: ''
# www.blender.org
mtllib light.mtl
o Cube
v 1.000000 1.000000 -1.000000
v 1.657803 -1.000000 -1.657803
v 1.000000 1.000000 1.000000
v 1.657803 -1.000000 1.657803
v -1.000000 1.000000 -1.000000
v -1.657803 -1.000000 -1.657803
v -1.000000 1.000000 1.000000
v -1.657803 -1.000000 1.657803
vt 0.625000 0.500000
vt 0.875000 0.500000
vt 0.875000 0.750000
vt 0.625000 0.750000
vt 0.375000 0.750000
vt 0.625000 1.000000
vt 0.375000 1.000000
vt 0.375000 0.000000
vt 0.625000 0.000000
vt 0.625000 0.250000
vt 0.375000 0.250000
vt 0.125000 0.500000
vt 0.375000 0.500000
vt 0.125000 0.750000
vn 0.0000 1.0000 0.0000
vn 0.0000 0.3124 0.9499
vn -0.9499 0.3124 0.0000
vn 0.0000 -1.0000 0.0000
vn 0.9499 0.3124 0.0000
vn 0.0000 0.3124 -0.9499
usemtl Material.002
s off
f 1/1/1 5/2/1 7/3/1 3/4/1
f 4/5/2 3/4/2 7/6/2 8/7/2
f 8/8/3 7/9/3 5/10/3 6/11/3
f 6/12/4 2/13/4 4/5/4 8/14/4
f 2/13/5 1/1/5 3/4/5 4/5/5
f 6/11/6 5/10/6 1/1/6 2/13/6
o Plane
v -1.475702 2.665803 -1.475702
v 1.475702 2.665803 -1.475702
v -1.475702 2.665802 1.475702
v 1.475702 2.665802 1.475702
vt 0.000000 0.000000
vt 1.000000 0.000000
vt 1.000000 1.000000
vt 0.000000 1.000000
vn 0.0000 -1.0000 -0.0000
usemtl Material.001
s off
f 9/15/7 10/16/7 12/17/7 11/18/7
o Sphere
v 0.000000 2.054160 -0.395000
v 0.000000 1.765000 -0.684160
v 0.000000 1.370000 -0.790000
v 0.000000 0.975000 -0.684160
v 0.000000 0.685840 -0.395000
v 0.342080 2.054160 -0.197500
v 0.592500 1.765000 -0.342080
v 0.684160 1.370000 -0.395000
v 0.592500 0.975000 -0.342080
v 0.342080 0.685840 -0.197500
v 0.342080 2.054160 0.197500
v 0.592500 1.765000 0.342080
v 0.684160 1.370000 0.395000
v 0.592500 0.975000 0.342080
v 0.342080 0.685840 0.197500
v -0.000000 2.054160 0.395000
v -0.000000 1.765000 0.684160
v -0.000000 1.370000 0.790000
v -0.000000 0.975000 0.684160
v -0.000000 0.685840 0.395000
v 0.000000 2.160000 0.000000
v -0.342080 2.054160 0.197500
v -0.592500 1.765000 0.342080
v -0.684160 1.370000 0.395000
v -0.592500 0.975000 0.342080
v -0.342080 0.685840 0.197500
v -0.342080 2.054160 -0.197500
v -0.592500 1.765000 -0.342080
v -0.684160 1.370000 -0.395000
v -0.592500 0.975000 -0.342080
v -0.342080 0.685840 -0.197500
v 0.000000 0.580000 0.000000
vt 0.666667 0.166667
vt 0.666667 0.333333
vt 0.500000 0.333333
vt 0.500000 0.166667
vt 0.666667 0.500000
vt 0.666667 0.666667
vt 0.500000 0.666667
vt 0.500000 0.500000
vt 0.666667 0.833333
vt 0.583333 1.000000
vt 0.500000 0.833333
vt 0.583333 0.000000
vt 0.416667 0.000000
vt 0.333333 0.166667
vt 0.333333 0.500000
vt 0.333333 0.333333
vt 0.333333 0.833333
vt 0.333333 0.666667
vt 0.416667 1.000000
vt 0.250000 0.000000
vt 0.166667 0.166667
vt 0.166667 0.500000
vt 0.166667 0.333333
vt 0.166667 0.833333
vt 0.166667 0.666667
vt 0.250000 1.000000
vt 0.083333 0.000000
vt 0.000000 0.166667
vt 0.000000 0.500000
vt 0.000000 0.333333
vt 0.000000 0.833333
vt 0.000000 0.666667
vt 0.083333 1.000000
vt 1.000000 0.333333
vt 1.000000 0.500000
vt 0.833333 0.500000
vt 0.833333 0.333333
vt 1.000000 0.666667
vt 1.000000 0.833333
vt 0.833333 0.833333
vt 0.833333 0.666667
vt 1.000000 0.166667
vt 0.833333 0.166667
vt 0.916667 1.000000
vt 0.916667 0.000000
vt 0.750000 1.000000
vt 0.750000 0.000000
vn 0.3780 -0.6547 -0.6547
vn 0.4871 0.2260 -0.8436
vn 0.1478 0.9553 -0.2560
vn 0.1478 -0.9553 -0.2560
vn 0.4871 -0.2260 -0.8436
vn 0.3780 0.6547 -0.6547
vn 0.2956 -0.9553 0.0000
vn 0.9741 -0.2260 0.0000
vn 0.7559 0.6547 0.0000
vn 0.7559 -0.6547 0.0000
vn 0.9741 0.2260 0.0000
vn 0.2956 0.9553 0.0000
vn 0.1478 -0.9553 0.2560
vn 0.4871 -0.2260 0.8436
vn 0.3780 0.6547 0.6547
vn 0.3780 -0.6547 0.6547
vn 0.4871 0.2260 0.8436
vn 0.1478 0.9553 0.2560
vn -0.1478 -0.9553 0.2560
vn -0.4871 -0.2260 0.8436
vn -0.3780 0.6547 0.6547
vn -0.3780 -0.6547 0.6547
vn -0.4871 0.2260 0.8436
vn -0.1478 0.9553 0.2560
vn -0.9741 -0.2260 -0.0000
vn -0.7559 0.6547 -0.0000
vn -0.7559 -0.6547 -0.0000
vn -0.9741 0.2260 -0.0000
vn -0.2956 0.9553 0.0000
vn -0.2956 -0.9553 -0.0000
vn -0.3780 0.6547 -0.6547
vn -0.3780 -0.6547 -0.6547
vn -0.4871 0.2260 -0.8436
vn -0.1478 0.9553 -0.2560
vn -0.1478 -0.9553 -0.2560
vn -0.4871 -0.2260 -0.8436
usemtl Material.003
s off
f 17/19/8 16/20/8 21/21/8 22/22/8
f 15/23/9 14/24/9 19/25/9 20/26/9
f 13/27/10 33/28/10 18/29/10
f 44/30/11 17/19/11 22/22/11
f 16/20/12 15/23/12 20/26/12 21/21/12
f 14/24/13 13/27/13 18/29/13 19/25/13
f 44/31/14 22/22/14 27/32/14
f 21/21/15 20/26/15 25/33/15 26/34/15
f 19/25/16 18/29/16 23/35/16 24/36/16
f 22/22/17 21/21/17 26/34/17 27/32/17
f 20/26/18 19/25/18 24/36/18 25/33/18
f 18/29/19 33/37/19 23/35/19
f 44/38/20 27/32/20 32/39/20
f 26/34/21 25/33/21 30/40/21 31/41/21
f 24/36/22 23/35/22 28/42/22 29/43/22
f 27/32/23 26/34/23 31/41/23 32/39/23
f 25/33/24 24/36/24 29/43/24 30/40/24
f 23/35/25 33/44/25 28/42/25
f 44/45/26 32/39/26 38/46/26
f 31/41/27 30/40/27 36/47/27 37/48/27
f 29/43/28 28/42/28 34/49/28 35/50/28
f 32/39/29 31/41/29 37/48/29 38/46/29
f 30/40/30 29/43/30 35/50/30 36/47/30
f 28/42/31 33/51/31 34/49/31
f 37/52/32 36/53/32 41/54/32 42/55/32
f 35/56/33 34/57/33 39/58/33 40/59/33
f 38/60/34 37/52/34 42/55/34 43/61/34
f 36/53/35 35/56/35 40/59/35 41/54/35
f 34/57/36 33/62/36 39/58/36
f 44/63/37 38/60/37 43/61/37
f 40/59/38 39/58/38 13/27/38 14/24/38
f 43/61/39 42/55/39 16/20/39 17/19/39
f 41/54/40 40/59/40 14/24/40 15/23/40
f 39/58/41 33/64/41 13/27/41
f 44/65/42 43/61/42 17/19/42
f 42/55/43 41/54/43 15/23/43 16/20/43
